<svg width="100" height="100" viewBox="0 0 100 100" fill="none" xmlns="http://www.w3.org/2000/svg">
<path d="M25.2353 45.6606V89.1923C25.1867 92.0054 23.9956 94.6874 21.9187 96.6602C19.842 98.6329 17.0457 99.7385 14.1328 99.7385C11.2199 99.7385 8.42371 98.6329 6.34688 96.6602C4.27005 94.6874 3.07894 92.0054 3.0303 89.1923V45.6606C3.07894 48.4737 4.27005 51.1556 6.34688 53.1285C8.42371 55.1012 11.2199 56.2068 14.1328 56.2068C17.0457 56.2068 19.842 55.1012 21.9187 53.1285C23.9956 51.1556 25.1867 48.4737 25.2353 45.6606Z" fill="#0F66FF"/>
<path d="M97.2244 45.6606C97.2244 57.7698 92.2442 69.3829 83.3792 77.9455C74.5143 86.5079 62.4908 91.3183 49.954 91.3183H49.6661C46.7211 91.3183 43.8968 90.1883 41.8144 88.1769C39.7319 86.1655 38.562 83.4376 38.562 80.593C38.562 77.7485 39.7319 75.0205 41.8144 73.0092C43.8968 70.9978 46.7211 69.8678 49.6661 69.8678H49.954C53.2469 69.8678 56.5075 69.2414 59.5496 68.0242C62.5918 66.8071 65.3561 65.0231 67.6845 62.7741C70.0129 60.5253 71.8598 57.8554 73.1199 54.917C74.3801 51.9785 75.0287 48.8292 75.0287 45.6487C75.0773 42.8356 76.2684 40.1535 78.3453 38.1808C80.422 36.2081 83.2183 35.1025 86.1311 35.1025C89.0441 35.1025 91.8402 36.2081 93.9171 38.1808C95.994 40.1535 97.1851 42.8356 97.2337 45.6487L97.2244 45.6606Z" fill="#A0E9FF"/>
<path d="M97.2244 45.6606C97.1758 42.8475 95.9846 40.1656 93.9078 38.1927C91.831 36.22 89.0348 35.1144 86.1219 35.1144C83.209 35.1144 80.4128 36.22 78.3359 38.1927C76.2591 40.1656 75.068 42.8475 75.0193 45.6606C75.0193 39.2373 72.3776 33.0771 67.6752 28.5351C62.9728 23.9931 56.5949 21.4414 49.9447 21.4414H49.6568C46.7624 21.4031 43.9977 20.2745 41.9522 18.2962C39.9066 16.3178 38.7418 13.6462 38.7059 10.8503C38.6699 8.05458 39.7658 5.35577 41.7598 3.32899C43.754 1.30222 46.4887 0.107713 49.3813 0H49.954C56.1619 -1.28576e-08 62.3089 1.18107 68.0443 3.47577C73.7796 5.77047 78.9907 9.13385 83.3802 13.3738C87.7698 17.6138 91.2517 22.6475 93.627 28.1873C96.0024 33.7271 97.2248 39.6645 97.2244 45.6606Z" fill="#44D6FF"/>
<path d="M50.0159 21.4504C43.4195 21.5291 37.1208 24.1155 32.4852 28.6489C27.8495 33.1823 25.2503 39.2978 25.2508 45.6696C25.2022 48.4826 24.011 51.1646 21.9342 53.1375C19.8574 55.1102 17.0611 56.2158 14.1483 56.2158C11.2354 56.2158 8.43919 55.1102 6.36236 53.1375C4.28553 51.1646 3.09442 48.4826 3.04578 45.6696C3.04157 33.6557 7.93999 22.1242 16.6791 13.5753C25.4182 5.02624 37.2938 0.148698 49.7311 0C46.8075 0.0664205 44.029 1.24414 41.9991 3.27742C39.9691 5.31071 38.8515 8.03538 38.889 10.8598C38.9266 13.6842 40.1161 16.3803 42.1994 18.3626C44.2827 20.3449 47.0914 21.4534 50.0159 21.4474V21.4504Z" fill="#00B2FF"/>
</svg>
