<svg viewBox="0 0 85 94" fill="none" xmlns="http://www.w3.org/2000/svg">
  <path d="M84.3792 42.174C84.3792 53.3131 79.9542 63.996 72.0777 71.8725C64.2011 79.749 53.5183 84.174 42.3792 84.174H41.8692C40.5559 84.1405 39.2622 83.8487 38.0617 83.3152C36.8613 82.7817 35.7777 82.017 34.8728 81.0648C33.0452 79.1416 32.0565 76.5712 32.1242 73.919C32.1918 71.2668 33.3102 68.7502 35.2334 66.9226C37.1566 65.0951 39.727 64.1064 42.3792 64.174C48.2139 64.174 53.8097 61.8562 57.9355 57.7304C62.0613 53.6046 64.3792 48.0088 64.3792 42.174C64.3792 39.5218 65.4327 36.9783 67.3081 35.1029C69.1835 33.2276 71.727 32.174 74.3792 32.174C77.0313 32.174 79.5749 33.2276 81.4502 35.1029C83.3256 36.9783 84.3792 39.5218 84.3792 42.174Z" fill="#A0E9FF"/>
  <path d="M84.3792 42.174C84.3792 39.5218 83.3256 36.9783 81.4502 35.1029C79.5749 33.2276 77.0313 32.174 74.3792 32.174C71.727 32.174 69.1835 33.2276 67.3081 35.1029C65.4327 36.9783 64.3792 39.5218 64.3792 42.174C64.3792 36.3392 62.0613 30.7435 57.9355 26.6177C53.8097 22.4919 48.2139 20.174 42.3792 20.174C39.727 20.174 37.1834 19.1204 35.3081 17.2451C33.4327 15.3697 32.3792 12.8262 32.3792 10.174C32.3792 7.52185 33.4327 4.97831 35.3081 3.10294C37.1834 1.22758 39.727 0.174011 42.3792 0.174011C53.5182 0.174011 64.2011 4.599 72.0776 12.4755C79.9542 20.3521 84.3792 31.0349 84.3792 42.174Z" fill="#44D6FF"/>
  <path d="M42.3792 20.174C36.5444 20.174 30.9486 22.4919 26.8228 26.6177C22.697 30.7435 20.3791 36.3392 20.3791 42.174C20.4468 44.8262 19.4581 47.3966 17.6305 49.3198C15.803 51.243 13.2863 52.3614 10.6341 52.429C7.98197 52.4966 5.41157 51.5079 3.48838 49.6804C1.56519 47.8528 0.446765 45.3362 0.379135 42.684C0.379135 42.514 0.379135 42.344 0.379135 42.174C0.379135 31.0349 4.80412 20.3521 12.6807 12.4755C20.5572 4.599 31.2401 0.174011 42.3792 0.174011C39.727 0.174011 37.1834 1.22758 35.3081 3.10294C33.4327 4.97831 32.3792 7.52185 32.3792 10.174C32.3792 12.8262 33.4327 15.3697 35.3081 17.2451C37.1834 19.1204 39.727 20.174 42.3792 20.174Z" fill="#00B2FF"/>
  <path d="M20.3791 42.174V83.174C20.3791 85.8262 19.3256 88.3697 17.4502 90.2451C15.5748 92.1204 13.0313 93.174 10.3791 93.174C7.72697 93.174 5.18343 92.1204 3.30807 90.2451C1.4327 88.3697 0.379135 85.8262 0.379135 83.174V42.174C0.379135 42.344 0.379135 42.514 0.379135 42.684C0.446765 45.3362 1.56519 47.8528 3.48838 49.6804C5.41157 51.5079 7.98197 52.4966 10.6341 52.429C13.2863 52.3614 15.803 51.243 17.6305 49.3198C19.4581 47.3966 20.4468 44.8262 20.3791 42.174Z" fill="#0F66FF"/>
</svg>