<svg xmlns="http://www.w3.org/2000/svg" fill="none" viewBox="0 0 94 99"><path fill="#0F66FF" d="M22.93 45.2v43.1a10.45 10.45 0 0 1-3.28 7.4 11.2 11.2 0 0 1-7.71 3.04 11.2 11.2 0 0 1-7.7-3.05 10.45 10.45 0 0 1-3.3-7.39V45.2a10.45 10.45 0 0 0 3.3 7.4 11.2 11.2 0 0 0 7.7 3.04c2.88 0 5.65-1.09 7.7-3.04a10.45 10.45 0 0 0 3.29-7.4Z"/><path fill="#A0E9FF" d="M94.2 45.2a44.43 44.43 0 0 1-13.7 31.97A47.65 47.65 0 0 1 47.4 90.4h-.28a11.2 11.2 0 0 1-7.78-3.11c-2.06-2-3.22-4.7-3.22-7.51 0-2.82 1.16-5.52 3.22-7.51a11.2 11.2 0 0 1 7.78-3.11h.28c3.26 0 6.49-.62 9.5-1.83a24.9 24.9 0 0 0 8.05-5.2 23.94 23.94 0 0 0 5.39-7.77 23.27 23.27 0 0 0 1.89-9.18 10.45 10.45 0 0 1 3.28-7.4 11.2 11.2 0 0 1 7.7-3.04c2.9 0 5.66 1.1 7.72 3.05a10.45 10.45 0 0 1 3.28 7.4h-.01Z"/><path fill="#44D6FF" d="M94.2 45.2a10.45 10.45 0 0 0-3.28-7.39 11.2 11.2 0 0 0-7.71-3.05 11.2 11.2 0 0 0-7.71 3.05 10.45 10.45 0 0 0-3.28 7.4c0-6.37-2.62-12.46-7.27-16.96a25.28 25.28 0 0 0-17.56-7.02h-.28a11.19 11.19 0 0 1-7.63-3.12 10.44 10.44 0 0 1-3.21-7.37 10.42 10.42 0 0 1 3.02-7.44A11.11 11.11 0 0 1 46.83 0h.57c6.15 0 12.23 1.17 17.91 3.44a46.94 46.94 0 0 1 15.18 9.8c4.35 4.2 7.8 9.18 10.15 14.67a43.87 43.87 0 0 1 3.56 17.3Z"/><path fill="#00B2FF" d="M47.46 21.24a25.26 25.26 0 0 0-17.35 7.12 23.56 23.56 0 0 0-7.16 16.85 10.45 10.45 0 0 1-3.29 7.4 11.2 11.2 0 0 1-7.7 3.04 11.2 11.2 0 0 1-7.71-3.04 10.45 10.45 0 0 1-3.29-7.4c0-11.9 4.85-23.3 13.5-31.77A47.62 47.62 0 0 1 47.18 0c-2.9.07-5.64 1.23-7.65 3.24a10.43 10.43 0 0 0-3.08 7.51c.03 2.8 1.21 5.47 3.27 7.43a11.2 11.2 0 0 0 7.74 3.05Z"/></svg>